# xmcd
#
# Track frame offsets: 
#        150
#        11863
#        24278
#        36141
#        48913
#        61015
#        73987
#        86555
#        95645
#        108838
#        120327
#        129896
#        143136
#        153884
#        166337
#        178006
#        190680
#        203240
#        216049
#        228116
#        238724
#        251002
#        261590
#        273309
#        285746
#        297539
#        309084
#        321816
#        335512
#        345381
#        357872
#
# Disc length: 4921 seconds
#
# Revision: 1
# Processed by: cddbd v1.5.2PL0 Copyright (c) Steve Scherf et al.
# Submitted via: ExactAudioCopy v1.3
#
DISCID=bd13371f
DTITLE=Marty Robbins - The Complete Recordings 1952-1960_CD1
DYEAR=2017
DGENRE=Country
TTITLE0=Love Me or Leave Me Alone
TTITLE1=Tomorrow You'll Be Gone
TTITLE2=Crying Cause I Love You
TTITLE3=I Wish Somebody Loved Me
TTITLE4=I'll Go On Alone
TTITLE5=You're Breaking My Heart
TTITLE6=Don't Make Me Ashamed
TTITLE7=It's A Long, Long Ride
TTITLE8=Sing Me Something Sentimental
TTITLE9=At the End of a Long Lonely Day
TTITLE10=Call Me Up
TTITLE11=I'm Too Big to Cry
TTITLE12=Time Goes By
TTITLE13=My Isle of Golden Dreams
TTITLE14=Pretty Words
TTITLE15=Your Heart's Turn to Break
TTITLE16=I Couldn't Keep From Crying
TTITLE17=Pray for Me Mother of Mine
TTITLE18=Daddy Loves You
TTITLE19=This Broken Heart of Mine
TTITLE20=Pretty Mama
TTITLE21=Don't Let Me Hang Around (If You Don't Care)
TTITLE22=That's All Right
TTITLE23=Gossip
TTITLE24=It Looks Like I'm Just in Your Way
TTITLE25=I'll Love You Till the Day I Die
TTITLE26=Mr. Teardrop
TTITLE27=The Same Two Lips
TTITLE28=Knee Deep in the Blues
TTITLE29=You Don't Owe Me a Thing
TTITLE30=Singing in the Blues
EXTD=
EXTT0=
EXTT1=
EXTT2=
EXTT3=
EXTT4=
EXTT5=
EXTT6=
EXTT7=
EXTT8=
EXTT9=
EXTT10=
EXTT11=
EXTT12=
EXTT13=
EXTT14=
EXTT15=
EXTT16=
EXTT17=
EXTT18=
EXTT19=
EXTT20=
EXTT21=
EXTT22=
EXTT23=
EXTT24=
EXTT25=
EXTT26=
EXTT27=
EXTT28=
EXTT29=
EXTT30=
PLAYORDER=
